{"title":"It's Christmastime Again, Charlie Brown (1992) BRRip x264 ukr su","uid":9341828,"size":189479900,"categoryP":"video","categoryS":"other","magnet":"?xt=urn:btih:6e4b607381864be42284cfab9ad3951ef99e37d2&amp;dn=It%27s+Christmastime+Again%2C+Charlie+Brown+%281992%29+BRRip+x264+ukr+su&amp;tr=udp%3A%2F%2Ftracker.openbittorrent.com%3A80&amp;tr=udp%3A%2F%2Fopen.demonii.com%3A1337&amp;tr=udp%3A%2F%2Ftracker.coppersurfer.tk%3A6969&amp;tr=udp%3A%2F%2Fexodus.desync.com%3A6969","seeders":0,"leechers":0,"uploader":"orysia","files":-1,"time":1386951991,"description":"Director: Bill Melendez\nWriter: Charles M. Schulz\nStars: Jamie E. Smith, John Christian Graas, Marnette Patterson\n\nAs the holiday season rolls around and all the Peanuts gang are getting ready for it. Whether it be Charlie Brown struggling to raise money for his girlfriend or Sally and Peppermint Patty struggling to rehearse and memorize their one word lines for the Christmas pageant, these kids try to keep with the Christmas spirit while Snoopy has his mischief to do.\n\nFormat                           : MPEG-4\nFormat profile                   : Base Media\nCodec ID                         : isom\nFile size                        : 181 MiB\nDuration                         : 23mn 0s\nOverall bit rate                 : 1 098 Kbps\nMovie name                       : It's Christmastime Again, Charlie Brown*1992 /antusyrzhuk\nGenre                            : Comedy\nEncoded date                     : 1992\nTagged date                      : UTC 2013-12-12 14:13:22\nWriting application              : Yamb 2.0.0.8 [http://yamb.unite-video.com]\nComment                          : http://cinemasterpiece(dot)wordpress(dot)com/\n\nVideo\nID                               : 1\nFormat                           : AVC\nFormat/Info                      : Advanced Video Codec\nFormat profile                   : &lt;a class=&quot;__cf_email__&quot; href=&quot;/cdn-cgi/l/email-protection&quot; data-cfemail=&quot;1558747c7b5559263b24&quot;&gt;[email&amp;#160;protected]&lt;/a&gt;&lt;script data-cfhash='f9e31' type=&quot;text/javascript&quot;&gt;\n/* &lt;![CDATA[ */!function(){try{var t=&quot;currentScript&quot;in document?document.currentScript:function(){for(var t=document.getElementsByTagName(&quot;script&quot;),e=t.length;e--;)if(t[e].getAttribute(&quot;data-cfhash&quot;))return t[e]}();if(t&amp;&amp;t.previousSibling){var e,r,n,i,c=t.previousSibling,a=c.getAttribute(&quot;data-cfemail&quot;);if(a){for(e=&quot;&quot;,r=parseInt(a.substr(0,2),16),n=2;a.length-n;n+=2)i=parseInt(a.substr(n,2),16)^r,e+=String.fromCharCode(i);e=document.createTextNode(e),c.parentNode.replaceChild(e,c)}t.parentNode.removeChild(t);}}catch(u){}}()/* ]]&gt; */&lt;/script&gt;\nFormat settings, CABAC           : Yes\nFormat settings, ReFrames        : 12 frames\nCodec ID                         : avc1\nCodec ID/Info                    : Advanced Video Coding\nDuration                         : 23mn 0s\nBit rate mode                    : Variable\nBit rate                         : 999 Kbps\nMaximum bit rate                 : 2 804 Kbps\nWidth                            : 660 pixels\nHeight                           : 480 pixels\nDisplay aspect ratio             : 1.375\nFrame rate mode                  : Constant\nFrame rate                       : 23.976 fps\nColor space                      : YUV\nChroma subsampling               : 4:2:0\nBit depth                        : 8 bits\nScan type                        : Progressive\nBits/(Pixel*Frame)               : 0.132\nStream size                      : 164 MiB (91%)\nWriting library                  : x264 core 138 r2358 9e941d1\nEncoding settings                : cabac=1 / ref=12 / deblock=1:1:1 / analyse=0x1:0x111 / me=umh / subme=8 / psy=1 / psy_rd=0.40:0.00 / mixed_ref=1 / me_range=16 / chroma_me=1 / trellis=1 / 8x8dct=0 / cqm=0 / deadzone=21,11 / fast_pskip=1 / chroma_qp_offset=-2 / threads=3 / lookahead_threads=1 / sliced_threads=0 / nr=0 / decimate=1 / interlaced=0 / bluray_compat=0 / constrained_intra=0 / bframes=5 / b_pyramid=2 / b_adapt=2 / b_bias=0 / direct=3 / weightb=1 / open_gop=0 / weightp=2 / keyint=240 / keyint_min=23 / scenecut=30 / intra_refresh=0 / rc_lookahead=50 / rc=2pass / mbtree=1 / bitrate=999 / ratetol=1.0 / qcomp=0.60 / qpmin=0 / qpmax=69 / qpstep=4 / cplxblur=20.0 / qblur=0.5 / vbv_maxrate=14000 / vbv_bufsize=14000 / nal_hrd=none / ip_ratio=1.30 / aq=1:0.60\nEncoded date                     : UTC 2013-12-12 14:13:22\nTagged date                      : UTC 2013-12-12 14:13:30\n\nAudio\nID                               : 2\nFormat                           : AAC\nFormat/Info                      : Advanced Audio Codec\nFormat version                   : Version 4\nFormat profile                   : LC\nFormat settings, SBR             : No\nCodec ID                         : 40\nDuration                         : 23mn 0s\nBit rate mode                    : Variable\nBit rate                         : 96.0 Kbps\nMaximum bit rate                 : 127 Kbps\nChannel(s)                       : 2 channels\nChannel positions                : Front: L R\nSampling rate                    : 48.0 KHz\nStream size                      : 15.6 MiB (9%)\nLanguage                         : English\nEncoded date                     : UTC 2013-12-12 14:13:29\nTagged date                      : UTC 2013-12-12 14:13:30\n\nUkrainian subtitles are HARDCODED\n\nScreenshots: &lt;a href=&quot;\nhttp://img163.imageshack.us/img163/4301/9jq8.png&quot; rel=&quot;nofollow&quot; target=&quot;_NEW&quot;&gt;\nhttp://img163.imageshack.us/img163/4301/9jq8.png&lt;/a&gt; &lt;a href=&quot;\nhttp://img209.imageshack.us/img209/2890/7pj8.png&quot; rel=&quot;nofollow&quot; target=&quot;_NEW&quot;&gt;\nhttp://img209.imageshack.us/img209/2890/7pj8.png&lt;/a&gt; &lt;a href=&quot;\nhttp://img833.imageshack.us/img833/3603/xk93.png&quot; rel=&quot;nofollow&quot; target=&quot;_NEW&quot;&gt;\nhttp://img833.imageshack.us/img833/3603/xk93.png&lt;/a&gt; &lt;a href=&quot;\nhttp://img194.imageshack.us/img194/4628/gz8g.png&quot; rel=&quot;nofollow&quot; target=&quot;_NEW&quot;&gt;\nhttp://img194.imageshack.us/img194/4628/gz8g.png&lt;/a&gt; &lt;a href=&quot;\nhttp://img690.imageshack.us/img690/2682/znfm.png&quot; rel=&quot;nofollow&quot; target=&quot;_NEW&quot;&gt;\nhttp://img690.imageshack.us/img690/2682/znfm.png&lt;/a&gt; &lt;a href=&quot;\nhttp://img837.imageshack.us/img837/6619/ttww.png&quot; rel=&quot;nofollow&quot; target=&quot;_NEW&quot;&gt;\nhttp://img837.imageshack.us/img837/6619/ttww.png&lt;/a&gt;","torrent":{"xt":"urn:btih:6e4b607381864be42284cfab9ad3951ef99e37d2","amp;dn":"It%27s+Christmastime+Again%2C+Charlie+Brown+%281992%29+BRRip+x264+ukr+su","amp;tr":["udp%3A%2F%2Ftracker.openbittorrent.com%3A80","udp%3A%2F%2Fopen.demonii.com%3A1337","udp%3A%2F%2Ftracker.coppersurfer.tk%3A6969","udp%3A%2F%2Fexodus.desync.com%3A6969"],"infoHash":"6e4b607381864be42284cfab9ad3951ef99e37d2","infoHashBuffer":{"type":"Buffer","data":[110,75,96,115,129,134,75,228,34,132,207,171,154,211,149,30,249,158,55,210]},"announce":[],"urlList":[]}}